<svg width="755" height="594" viewBox="0 0 755 594" fill="none" xmlns="http://www.w3.org/2000/svg">
<path d="M754.93 440.27L701.59 345.44L726.59 343.51L686.58 281.58L711.59 279.64L658.25 209.98L681.58 208.04L629.91 119.02L629.34 121.24L629.32 118.36L577.64 207.38L600.98 209.32L547.64 278.98L572.64 280.92L532.63 342.85L557.64 344.78L504.29 439.61L548.12 439.03L548.08 439.21L620.06 439.58V553.48H639.17V439.68L754.93 440.27Z" fill="#C3D9ED" fill-opacity="0.1"/>
<path d="M535.74 440.27L482.4 345.44L507.41 343.51L467.39 281.58L492.4 279.64L439.06 209.98L462.39 208.04L410.72 119.02L410.15 121.24L410.13 118.36L358.45 207.38L381.79 209.32L328.45 278.98L353.45 280.92L313.44 342.85L338.45 344.78L285.1 439.61L328.93 439.03L328.89 439.21L400.87 439.58V593.92H419.98V439.68L535.74 440.27Z" fill="#C3D9ED" fill-opacity="0.1"/>
<path d="M334.95 440.27L281.6 345.44L306.61 343.51L266.6 281.58L291.61 279.64L238.27 209.98L261.6 208.04L209.92 119.02L209.36 121.24L209.34 118.36L157.66 207.38L181 209.32L127.65 278.98L152.66 280.92L112.65 342.85L137.66 344.78L84.31 439.61L128.14 439.03L128.1 439.21L200.08 439.58V545.52H219.19V439.68L334.95 440.27Z" fill="#C3D9ED" fill-opacity="0.1"/>
<path d="M670.62 448.67L617.28 353.84L642.28 351.91L602.27 289.98L627.28 288.05L573.94 218.38L597.27 216.44L545.6 127.42L545.03 129.65L545.01 126.77L493.33 215.78L516.67 217.72L463.33 287.39L488.33 289.32L448.32 351.25L473.33 353.18L419.98 448.01L463.81 447.43L463.77 447.61L535.75 447.98V521.78H554.86V448.08L670.62 448.67Z" fill="#D7E8F7" fill-opacity="0.1"/>
<path d="M451.43 448.67L398.09 353.84L423.09 351.91L383.08 289.98L408.09 288.05L354.75 218.38L378.08 216.44L326.41 127.42L325.84 129.65L325.82 126.77L274.14 215.78L297.48 217.72L244.14 287.39L269.14 289.32L229.13 351.25L254.14 353.18L200.79 448.01L244.62 447.43L244.58 447.61L316.56 447.98V521.78H335.67V448.08L451.43 448.67Z" fill="#D7E8F7" fill-opacity="0.1"/>
<path d="M250.64 448.67L197.3 353.84L222.3 351.91L182.29 289.98L207.3 288.05L153.95 218.38L177.29 216.44L125.62 127.42L125.05 129.65L125.03 126.77L73.35 215.78L96.69 217.72L43.34 287.39L68.35 289.32L28.34 351.25L53.35 353.18L0 448.01L43.83 447.43L43.79 447.61L115.76 447.98V592.9H134.88V448.08L250.64 448.67Z" fill="#D7E8F7" fill-opacity="0.1"/>
<path d="M90.88 65.37C84.89 65.37 80.03 60.51 80.03 54.52C80.03 48.53 84.89 43.67 90.88 43.67C92.36 43.67 93.77 43.97 95.05 44.5C97.01 37.68 103.3 32.69 110.75 32.69C111.76 32.69 112.75 32.79 113.71 32.96C113.71 32.87 113.71 32.78 113.71 32.69C113.71 14.64 128.34 0 146.4 0C160.41 0 172.36 8.82 177.01 21.2C179.11 20.56 181.33 20.21 183.64 20.21C196.11 20.21 206.22 30.32 206.22 42.79C206.22 55.26 196.11 65.37 183.64 65.37H90.88Z" fill="#D7E8F7" fill-opacity="0.1"/>
<path d="M225.38 58.14C224.8 58.14 224.22 58.18 223.66 58.25C220.47 51.83 213.85 47.42 206.2 47.42C204.6 47.42 203.05 47.62 201.56 47.98C201.13 32.99 188.85 20.98 173.76 20.98C158.53 20.98 146.17 33.22 145.95 48.39C144.04 47.76 142 47.42 139.88 47.42C129.12 47.42 120.39 56.14 120.39 66.91C120.39 67.26 120.4 67.62 120.42 67.97C120.41 67.97 120.4 67.97 120.39 67.97C115.3 67.97 111.18 72.1 111.18 77.18C111.18 82.27 115.31 86.39 120.39 86.39H225.37C233.17 86.39 239.49 80.07 239.49 72.27C239.51 64.47 233.18 58.14 225.38 58.14Z" fill="#E8F3F7" fill-opacity="0.1"/>
<path d="M506.81 88.37C502.27 88.37 498.59 84.69 498.59 80.15C498.59 75.61 502.27 71.93 506.81 71.93C507.93 71.93 509 72.15 509.97 72.56C511.46 67.4 516.22 63.62 521.86 63.62C522.63 63.62 523.38 63.69 524.1 63.83C524.1 63.76 524.1 63.69 524.1 63.62C524.1 49.95 535.18 38.87 548.85 38.87C559.46 38.87 568.51 45.54 572.03 54.92C573.62 54.43 575.3 54.17 577.05 54.17C586.49 54.17 594.15 61.82 594.15 71.27C594.15 80.72 586.5 88.37 577.05 88.37H506.81Z" fill="#D7E8F7" fill-opacity="0.1"/>
<path d="M608.65 82.89C608.21 82.89 607.78 82.92 607.35 82.97C604.94 78.11 599.93 74.77 594.13 74.77C592.92 74.77 591.74 74.92 590.61 75.19C590.29 63.84 580.99 54.74 569.56 54.74C558.03 54.74 548.67 64.01 548.5 75.5C547.05 75.03 545.51 74.77 543.9 74.77C535.75 74.77 529.15 81.38 529.15 89.52C529.15 89.79 529.16 90.06 529.17 90.32C529.16 90.32 529.16 90.32 529.15 90.32C525.3 90.32 522.17 93.44 522.17 97.3C522.17 101.15 525.29 104.28 529.15 104.28H608.64C614.55 104.28 619.34 99.49 619.34 93.58C619.35 87.68 614.56 82.89 608.65 82.89Z" fill="#E8F3F7" fill-opacity="0.1"/>
</svg>
